<?xml version="1.0" encoding="UTF-8"?>
<svg width="125.08mm" height="189.9mm" clip-rule="evenodd" fill-rule="evenodd" image-rendering="optimizeQuality" shape-rendering="geometricPrecision" text-rendering="geometricPrecision" version="1.1" viewBox="0 0 6136 9316" xmlns="http://www.w3.org/2000/svg" xmlns:xlink="http://www.w3.org/1999/xlink">
 <defs>
  <style type="text/css">.str6 {stroke:#EF8641;stroke-width:3.73807;stroke-linecap:round;stroke-linejoin:round}
    .str0 {stroke:black;stroke-width:3.73807}
    .str7 {stroke:black;stroke-width:9.81121}
    .str5 {stroke:#003333;stroke-width:9.81121}
    .str4 {stroke:#1D1819;stroke-width:12.264}
    .str2 {stroke:black;stroke-width:12.264}
    .str1 {stroke:black;stroke-width:12.264;stroke-linecap:round;stroke-linejoin:round}
    .str3 {stroke:#1D1819;stroke-width:24.528;stroke-linecap:round;stroke-linejoin:round}
    .fil9 {fill:none}
    .fil11 {fill:#009B4C}
    .fil3 {fill:#1D1819}
    .fil0 {fill:black}
    .fil10 {fill:#006633}
    .fil17 {fill:#007A3D}
    .fil14 {fill:#339966}
    .fil13 {fill:#33CC66}
    .fil5 {fill:#990000}
    .fil1 {fill:#CCCCCC}
    .fil16 {fill:#E6E6E6}
    .fil12 {fill:white}
    .fil7 {fill:url(#a)}
    .fil6 {fill:url(#f)}
    .fil2 {fill:url(#e)}
    .fil15 {fill:url(#d)}
    .fil8 {fill:url(#c)}
    .fil4 {fill:url(#b)}</style>
  <linearGradient id="a" x1="5578.3" x2="5841.2" y1="4142" y2="2684" gradientUnits="userSpaceOnUse">
   <stop stop-color="#f93" offset="0"/>
   <stop stop-color="#FEFEFE" offset="1"/>
  </linearGradient>
  <linearGradient id="f" x1="-112.06" x2="964.46" y1="3885.6" y2="2940.4" gradientUnits="userSpaceOnUse" xlink:href="#a"></linearGradient>
  <radialGradient id="e" cx="4048.1" cy="8800.2" r="202.87" gradientUnits="userSpaceOnUse">
   <stop stop-color="#FEFEFE" offset="0"/>
   <stop stop-color="#F7CAAE" offset=".27059"/>
   <stop stop-color="#F1965E" offset="1"/>
  </radialGradient>
  <radialGradient id="d" cx="2868.1" cy="5005.9" r="201.99" gradientUnits="userSpaceOnUse">
   <stop stop-color="#FEFEFE" offset="0"/>
   <stop stop-color="#F5B06E" offset="1"/>
  </radialGradient>
  <radialGradient id="c" cx="3068" cy="2949.4" r="884.57" gradientUnits="userSpaceOnUse">
   <stop stop-color="#ffc" offset="0"/>
   <stop stop-color="#FFBA7F" offset="1"/>
  </radialGradient>
  <radialGradient id="b" cx="2708.1" cy="8749.7" r="202.87" gradientUnits="userSpaceOnUse">
   <stop stop-color="#FEFEFE" offset="0"/>
   <stop stop-color="#F7CAAE" offset=".2"/>
   <stop stop-color="#F1965E" offset="1"/>
  </radialGradient>
 </defs>
 <path class="fil0" d="m3261 8556c260 15 521 30 781 45 580 353 250 788-284 704-200-51-390-114-529-252-203-205-94-353 32-497z"/>
 <path class="fil1 str0" d="m3261 8556c260 14 521 28 781 42 551 338 250 727-284 649-200-47-390-106-529-232-203-189-94-325 32-459z"/>
 <path class="fil2 str1" d="m4003 8640c-230-12-461-24-691-36-91 77-209 143-129 287 184 159 387 315 719 335 78 8 127 2 130-42-23-36-78-52-123-74 55 24 109 51 171 58 59 5 71-18 65-52-40-45-90-59-139-77 55 21 107 48 171 48 35-3 41-18 36-39-34-38-77-57-119-77 45 20 89 42 136 42 44-3 46-25 39-52-29-31-67-41-107-48 41 5 83 11 123 13 31-7 30-29 11-62-63-115-182-166-292-225z"/>
 <path class="fil3 str0" d="m4233 8751l-100-89c-245 118-427 282-567 533 66 18 130 35 193 52 86-213 259-369 474-496z"/>
 <path class="fil0" d="m2829 8556c-260 15-521 30-781 45-580 353-250 788 284 704 200-51 390-114 529-252 203-205 94-353-32-497z"/>
 <path class="fil1 str0" d="m2829 8556c-260 14-521 28-781 42-551 338-250 727 284 649 200-47 390-106 529-232 203-189 94-325-32-459z"/>
 <path class="fil4 str1" d="m2087 8640c230-12 461-24 691-36 91 77 209 143 129 287-184 159-387 315-719 335-78 8-127 2-130-42 23-36 78-52 123-74-55 24-109 51-171 58-59 5-71-18-65-52 40-45 90-59 139-77-55 21-107 48-171 48-35-3-41-18-36-39 34-38 77-57 119-77-45 20-89 42-136 42-44-3-46-25-39-52 29-31 67-41 107-48-41 5-83 11-123 13-31-7-30-29-11-62 63-115 182-166 292-225z"/>
 <path class="fil5 str1" d="m3068 7460c-450 54-952 230-1403 284 0 147 87 161 87 308 0 108-84 236-36 333 58 115 13 201 0 295 120-19 239-33 350 0 118 35 248 27 368 0 226-51 423-13 633 0 210-13 407-51 633 0 120 27 250 35 368 0 111-33 230-19 350 0-13-95-58-180 0-295 49-96-36-225-36-333 0-147 74-161 74-308-450-54-940-230-1390-284z"/>
 <path class="fil6 str2" d="m878 3941c-56-394-113-788-169-1182-267-65-559-5-663 218-71 234-35 446 24 654 93 233 235 391 431 470 250 32 335-49 378-160z"/>
 <path class="fil7 str2" d="m5258 3941c56-394 113-788 169-1182 267-65 559-5 663 218 71 234 35 446-24 654-93 233-235 391-431 470-250 32-335-49-378-160z"/>
 <path class="fil8 str2" d="m3068 670l1350 152 112 143c158 536 546 1026 964 1511 214 2291-1077 2547-1627 2673-266 53-542 81-799 77-257 3-533-25-799-77-550-126-1841-382-1627-2673 378-453 761-901 964-1511l112-143 1350-152z"/>
 <path class="fil3" d="m636 2542c544-276 1023-810 1399-1538 118 35 154 148 78 364 320-72 521-238 648-465 152 263 131 565 51 880 157-137 305-302 504-310 457-37 527-264 610-484 14-69 264-63 291-10 287 661 761 1138 1280 1528 125-133 223-304 114-501-274-166-133-322 136-475-184-90-368-117-552 39 121-265 131-529 58-794-202 240-430 362-723 189-461-98-950-153-1462-165-494 9-981 62-1462 165-284 46-362-189-401-479-259 215-456 452-261 823-299 43-432 269-242 349 131 34 283 75 77 136-345 203-160 572-143 749z"/>
 <path class="fil9 str3" d="m1354 2219c347-415 799-383 1123-48"/>
 <path class="fil9 str3" d="m3709 2214c347-415 799-383 1123-48"/>
 <path class="fil10 str2" d="m3068 5226v2299l-73 220h-1382c-46-488-32-995 26-1517l994-736 434-265z"/>
 <path class="fil10 str2" d="m3068 5226v2299l73 220h1382c84-489 79-994-26-1517l-994-736-434-265z"/>
 <polygon class="fil11" points="2971 5497 3165 5497 3165 6618 2971 6618"/>
 <circle class="fil12 str4" cx="1920" cy="3047" r="666"/>
 <polygon class="fil13" points="3015 5497 3121 5497 3121 6618 3015 6618"/>
 <polygon class="fil14" points="3049 5497 3087 5497 3087 6618 3049 6618"/>
 <circle class="fil3" cx="2097" cy="3098" r="484"/>
 <circle class="fil12" cx="1955" cy="3012" r="261"/>
 <circle class="fil12 str4" cx="4278" cy="3047" r="666"/>
 <circle class="fil3" cx="4101" cy="3098" r="484"/>
 <circle class="fil12" cx="4244" cy="3012" r="261"/>
 <path class="fil9 str3" d="m2506 4179c347 415 799 383 1123 48"/>
 <path class="fil15 str1" d="m2809 5609c-47-111-94-223-140-334 12-79 15-156 68-242 66-153 126-303 179-450 24-82 89-130 153-179v1094c-21 26-44 50-75 53-70-4-125 33-184 58z"/>
 <path class="fil15 str1" d="m3327 5609c47-111 94-223 140-334-12-79-15-156-68-242-66-153-126-303-179-450-24-82-89-130-153-179v1094c21 26 44 50 75 53 70-4 125 33 184 58z"/>
 <polyline class="fil9 str5" points="1755 7195 2517 7195 2517 7325"/>
 <polyline class="fil9 str5" points="4383 7195 3621 7195 3621 7325"/>
 <path class="fil3 str0" d="m1858 8751l100-89c245 118 427 282 567 533-66 18-130 35-193 52-86-213-259-369-474-496z"/>
 <path class="fil16 str2" d="m2206 74c284-47 572-66 862-68 290 2 578 20 862 68 295 74 473 248 600 465 38 152 40 294 0 426-473-104-963-151-1462-165-499 14-989 60-1462 165-40-132-38-275 0-426 127-217 305-390 600-465z"/>
 <path class="fil10" d="m3068 592c499 3 988 72 1466 205 4-83-6-169-28-258-8-14-17-28-26-42-466-144-938-191-1413-180-475-11-947 36-1413 180-9 14-17 28-26 42-22 89-32 175-28 258 478-133 967-202 1466-205z"/>
 <circle class="fil16" cx="1740" cy="619" r="68"/>
 <circle class="fil16" cx="1979" cy="558" r="68"/>
 <circle class="fil16" cx="2267" cy="493" r="68"/>
 <circle class="fil16" cx="2582" cy="459" r="68"/>
 <circle class="fil16" cx="2897" cy="437" r="68"/>
 <circle class="fil16" cx="4396" cy="619" r="68"/>
 <circle class="fil16" cx="4157" cy="558" r="68"/>
 <circle class="fil16" cx="3869" cy="493" r="68"/>
 <circle class="fil16" cx="3554" cy="459" r="68"/>
 <circle class="fil16" cx="3239" cy="437" r="68"/>
 <path class="fil10" d="m2206 97c284-47 572-66 862-68 290 2 578 20 862 68 93 23 175 57 246 98-373-42-743-79-1108-63-360-14-732 27-1108 63 72-41 153-75 246-98z"/>
 <path class="fil17 str1" d="m1380 5950c340-374 751-690 1201-973 134 178 252 362 315 567 57 150 46 260 24 378-406 334-817 448-1230 426-133-9-246-44-334-111-66-103-39-196 24-286z"/>
 <path class="fil17 str1" d="m4756 5950c-340-374-751-690-1201-973-134 178-252 362-315 567-57 150-46 260-24 378 406 334 817 448 1230 426 133-9 246-44 334-111 66-103 39-196-24-286z"/>
 <path class="fil9 str6" d="m1732 7848c140 97 262 52 333-6 70-58 193-45 271 0 146 84 213 40 372-6 12-3 125 10 137 7 16-5 166-8 181-5 302 56 293 9 446 4 70-2 137 8 202 20 85 15 168 34 250 32 44-1 84-42 126-46 96-9 239 18 332-2"/>
 <path class="fil9 str6" d="m1762 7932c138 97 259 52 329-6 69-58 191-45 268 0 144 84 211 40 368-6 12-3 124 10 136 7 15-5 164-8 179-5 299 56 290 9 441 4 69-2 135 8 200 20 84 15 166 34 247 32 43-1 83-42 125-46 95-9 236 18 328-2"/>
 <path class="fil9 str6" d="m1777 8026c135 97 253 52 321-6 67-58 186-45 262 0 141 84 206 40 359-6 12-3 121 10 132 7 15-5 160-8 175-5 292 56 283 9 431 4 67-2 132 8 195 20 82 15 162 34 242 32 42-1 81-42 122-46 93-9 231 18 321-2"/>
 <path class="fil9 str6" d="m1777 8130c135 97 253 52 321-6 67-58 186-45 262 0 141 84 206 40 359-6 12-3 121 10 132 7 15-5 160-8 175-5 292 56 283 9 431 4 67-2 132 8 195 20 82 15 162 34 242 32 42-1 81-42 122-46 93-9 231 18 321-2"/>
 <path class="fil9 str6" d="m1777 8236c135 97 253 52 321-6 67-58 186-45 262 0 141 84 206 40 359-6 12-3 121 10 132 7 15-5 160-8 175-5 292 56 283 9 431 4 67-2 132 8 195 20 82 15 162 34 242 32 42-1 81-42 122-46 93-9 231 18 321-2"/>
 <path class="fil9 str6" d="m1777 8356c135 97 253 52 321-6 67-58 186-45 262 0 141 84 206 40 359-6 12-3 121 10 132 7 15-5 160-8 175-5 292 56 283 9 431 4 67-2 132 8 195 20 82 15 162 34 242 32 42-1 81-42 122-46 93-9 231 18 321-2"/>
 <path class="fil9 str6" d="m1777 8471c135 97 253 52 321-6 67-58 186-45 262 0 141 84 206 40 359-6 12-3 121 10 132 7 15-5 160-8 175-5 292 56 283 9 431 4 67-2 132 8 195 20 82 15 162 34 242 32 42-1 81-42 122-46 93-9 231 18 321-2"/>
 <path class="fil9 str6" d="m1777 8538c135 97 253 52 321-6 67-58 186-45 262 0 141 84 206 40 359-6 12-3 121 10 132 7 15-5 160-8 175-5 292 56 283 9 431 4 67-2 132 8 195 20 82 15 162 34 242 32 42-1 81-42 122-46 93-9 231 18 321-2"/>
 <path class="fil9 str6" d="m1711 7791c9 35 103 46 53 110-41 53 14 99 16 165 1 39-25 105-26 149-1 34 23 73 25 106 4 87-3 167 1 249 1 11-15 42-14 53"/>
 <path class="fil9 str6" d="m1802 7791c9 35 103 46 53 110-41 53 14 99 16 165 1 39-25 105-26 149-1 34 23 73 25 106 4 87-3 167 1 249 1 11-15 42-14 53"/>
 <path class="fil9 str6" d="m1913 7791c9 35 103 46 53 110-41 53 14 99 16 165 1 39-25 105-26 149-1 34 23 73 25 106 4 87-3 167 1 249 1 11-15 42-14 53"/>
 <path class="fil9 str6" d="m2010 7791c9 35 103 46 53 110-41 53 14 99 16 165 1 39-25 105-26 149-1 34 23 73 25 106 4 87-3 167 1 249 1 11-15 42-14 53"/>
 <path class="fil9 str6" d="m2124 7791c9 35 103 46 53 110-41 53 14 99 16 165 1 39-25 105-26 149-1 34 23 73 25 106 4 87-3 167 1 249 1 11-15 42-14 53"/>
 <path class="fil9 str6" d="m2268 7791c9 35 103 46 53 110-41 53 14 99 16 165 1 39-25 105-26 149-1 34 23 73 25 106 4 87-3 167 1 249 1 11-15 42-14 53"/>
 <path class="fil9 str6" d="m2408 7791c9 35 103 46 53 110-41 53 14 99 16 165 1 39-25 105-26 149-1 34 23 73 25 106 4 87-3 167 1 249 1 11-15 42-14 53"/>
 <path class="fil9 str6" d="m2550 7791c9 35 80 33 53 110-19 53 218 100 16 165-37 12-25 105-26 149-1 34 23 73 25 106 4 87-3 167 1 249 1 11-15 42-14 53"/>
 <path class="fil9 str6" d="m2720 7791c9 35 103 46 53 110-41 53 14 99 16 165 1 39-25 105-26 149-1 34 23 73 25 106 4 87-3 167 1 249 1 11-15 42-14 53"/>
 <path class="fil9 str6" d="m2838 7791c9 35 103 46 53 110-41 53 14 99 16 165 1 39-25 105-26 149-1 34 23 73 25 106 4 87-3 167 1 249 1 11-15 42-14 53"/>
 <path class="fil9 str6" d="m2989 7791c9 35 103 46 53 110-41 53 14 99 16 165 1 39-25 105-26 149-1 34 23 73 25 106 4 87-3 167 1 249 1 11-15 42-14 53"/>
 <path class="fil9 str6" d="m3221 7791c-9 35-103 46-53 110 41 53-14 99-16 165-1 39 25 105 26 149 1 34-23 73-25 106-4 87 3 167-1 249-1 11 15 42 14 53"/>
 <path class="fil9 str6" d="m3363 7791c-9 35-103 46-53 110 41 53-14 99-16 165-1 39 25 105 26 149 1 34-23 73-25 106-4 87 3 167-1 249-1 11 15 42 14 53"/>
 <path class="fil9 str6" d="m3487 7791c-9 35-103 46-53 110 41 53-14 99-16 165-1 39 25 105 26 149 1 34-23 73-25 106-4 87 3 167-1 249-1 11 15 42 14 53"/>
 <path class="fil9 str6" d="m3612 7791c-9 35-103 46-53 110 41 53-14 99-16 165-1 39 25 105 26 149 1 34-23 73-25 106-4 87 3 167-1 249-1 11 15 42 14 53"/>
 <path class="fil9 str6" d="m3737 7791c-9 35-103 46-53 110 41 53-14 99-16 165-1 39 25 105 26 149 1 34-23 73-25 106-4 87 3 167-1 249-1 11 15 42 14 53"/>
 <path class="fil9 str6" d="m3905 7791c9 35 103 46 53 110-41 53 14 99 16 165 1 39-25 105-26 149-1 34 23 73 25 106 4 87-3 167 1 249 1 11-15 42-14 53"/>
 <path class="fil9 str6" d="m3872 7791c-9 35-103 46-53 110 41 53-14 99-16 165-1 39 25 105 26 149 1 34-23 73-25 106-4 87 3 167-1 249-1 11 15 42 14 53"/>
 <path class="fil9 str6" d="m4021 7791c9 35 103 46 53 110-41 53 14 99 16 165 1 39-25 105-26 149-1 34 23 73 25 106 4 87-3 167 1 249 1 11-15 42-14 53"/>
 <path class="fil9 str6" d="m4118 7791c9 35 103 46 53 110-41 53 14 99 16 165 1 39-25 105-26 149-1 34 23 73 25 106 4 87-3 167 1 249 1 11-15 42-14 53"/>
 <path class="fil9 str6" d="m4222 7791c9 35 103 46 53 110-41 53 14 99 16 165 1 39-25 105-26 149-1 34 23 73 25 106 4 87-3 167 1 249 1 11-15 42-14 53"/>
 <path class="fil9 str6" d="m4288 7791c9 35 103 46 53 110-41 53 14 99 16 165 1 39-25 105-26 149-1 34 23 73 25 106 4 87-3 167 1 249 1 11-15 42-14 53"/>
 <circle class="fil0" cx="3170" cy="3896" r="45"/>
 <circle class="fil0" cx="3024" cy="3903" r="45"/>
 <path class="fil9 str7" d="m2486 5038c206 267 337 573 375 930"/>
 <path class="fil9 str7" d="m3657 5043c-206 267-337 573-375 930"/>
</svg>
