<?xml version="1.0" encoding="UTF-8"?>
<svg width="373.97" height="655.99" fill-rule="evenodd" image-rendering="optimizeQuality" shape-rendering="geometricPrecision" text-rendering="geometricPrecision" viewBox="0 0 178001 312236" xmlns="http://www.w3.org/2000/svg" xmlns:xlink="http://www.w3.org/1999/xlink">
 <defs>
  <linearGradient id="bm" x1="48220" x2="45734" y1="2.8556e5" y2="2.8693e5" gradientUnits="userSpaceOnUse">
   <stop stop-color="#fff" offset="0"/>
   <stop stop-color="#fff" stop-opacity="0" offset="1"/>
  </linearGradient>
  <linearGradient id="aq" x1="53921" x2="51436" y1="2.8556e5" y2="2.8693e5" gradientUnits="userSpaceOnUse">
   <stop stop-color="#fff" offset="0"/>
   <stop stop-color="#fff" stop-opacity="0" offset="1"/>
  </linearGradient>
  <linearGradient id="w" x1="59581" x2="57096" y1="2.8556e5" y2="2.8693e5" gradientUnits="userSpaceOnUse">
   <stop stop-color="#fff" offset="0"/>
   <stop stop-color="#fff" stop-opacity="0" offset="1"/>
  </linearGradient>
  <linearGradient id="k" x1="65881" x2="63396" y1="2.8556e5" y2="2.8693e5" gradientUnits="userSpaceOnUse">
   <stop stop-color="#fff" offset="0"/>
   <stop stop-color="#fff" stop-opacity="0" offset="1"/>
  </linearGradient>
  <linearGradient id="i" x1="71583" x2="69098" y1="2.8556e5" y2="2.8693e5" gradientUnits="userSpaceOnUse">
   <stop stop-color="#fff" offset="0"/>
   <stop stop-color="#fff" stop-opacity="0" offset="1"/>
  </linearGradient>
  <linearGradient id="bk" x1="77243" x2="74758" y1="2.8556e5" y2="2.8693e5" gradientUnits="userSpaceOnUse">
   <stop stop-color="#fff" offset="0"/>
   <stop stop-color="#fff" stop-opacity="0" offset="1"/>
  </linearGradient>
  <linearGradient id="bi" x1="83194" x2="80708" y1="2.8556e5" y2="2.8693e5" gradientUnits="userSpaceOnUse">
   <stop stop-color="#fff" offset="0"/>
   <stop stop-color="#fff" stop-opacity="0" offset="1"/>
  </linearGradient>
  <linearGradient id="bg" x1="88895" x2="86410" y1="2.8556e5" y2="2.8693e5" gradientUnits="userSpaceOnUse">
   <stop stop-color="#fff" offset="0"/>
   <stop stop-color="#fff" stop-opacity="0" offset="1"/>
  </linearGradient>
  <linearGradient id="be" x1="94555" x2="92070" y1="2.8556e5" y2="2.8693e5" gradientUnits="userSpaceOnUse">
   <stop stop-color="#fff" offset="0"/>
   <stop stop-color="#fff" stop-opacity="0" offset="1"/>
  </linearGradient>
  <linearGradient id="bc" x1="1.0115e5" x2="98668" y1="2.8556e5" y2="2.8693e5" gradientUnits="userSpaceOnUse">
   <stop stop-color="#fff" offset="0"/>
   <stop stop-color="#fff" stop-opacity="0" offset="1"/>
  </linearGradient>
  <linearGradient id="az" x1="1.0685e5" x2="1.0437e5" y1="2.8556e5" y2="2.8693e5" gradientUnits="userSpaceOnUse">
   <stop stop-color="#fff" offset="0"/>
   <stop stop-color="#fff" stop-opacity="0" offset="1"/>
  </linearGradient>
  <linearGradient id="ax" x1="1.1251e5" x2="1.1003e5" y1="2.8556e5" y2="2.8693e5" gradientUnits="userSpaceOnUse">
   <stop stop-color="#fff" offset="0"/>
   <stop stop-color="#fff" stop-opacity="0" offset="1"/>
  </linearGradient>
  <linearGradient id="av" x1="1.1943e5" x2="1.1695e5" y1="2.8556e5" y2="2.8693e5" gradientUnits="userSpaceOnUse">
   <stop stop-color="#fff" offset="0"/>
   <stop stop-color="#fff" stop-opacity="0" offset="1"/>
  </linearGradient>
  <linearGradient id="at" x1="1.2513e5" x2="1.2265e5" y1="2.8556e5" y2="2.8693e5" gradientUnits="userSpaceOnUse">
   <stop stop-color="#fff" offset="0"/>
   <stop stop-color="#fff" stop-opacity="0" offset="1"/>
  </linearGradient>
  <linearGradient id="ar" x1="1.3079e5" x2="1.2831e5" y1="2.8556e5" y2="2.8693e5" gradientUnits="userSpaceOnUse">
   <stop stop-color="#fff" offset="0"/>
   <stop stop-color="#fff" stop-opacity="0" offset="1"/>
  </linearGradient>
  <linearGradient id="b" x1="48217" x2="47833" y1="2.8553e5" y2="2.8606e5" gradientUnits="userSpaceOnUse">
   <stop stop-color="#ef92ba" offset="0"/>
   <stop stop-color="#566892" offset="1"/>
  </linearGradient>
  <linearGradient id="a" x1="48260" x2="47791" y1="2.8561e5" y2="2.8598e5" gradientUnits="userSpaceOnUse">
   <stop stop-color="#75c4b9" offset="0"/>
   <stop stop-color="#566892" offset="1"/>
  </linearGradient>
  <linearGradient id="ap" x1="53919" x2="53534" y1="2.8553e5" y2="2.8606e5" gradientUnits="userSpaceOnUse" xlink:href="#b"></linearGradient>
  <linearGradient id="ao" x1="59579" x2="59194" y1="2.8553e5" y2="2.8606e5" gradientUnits="userSpaceOnUse" xlink:href="#b"></linearGradient>
  <linearGradient id="an" x1="65879" x2="65494" y1="2.8553e5" y2="2.8606e5" gradientUnits="userSpaceOnUse" xlink:href="#b"></linearGradient>
  <linearGradient id="am" x1="71581" x2="71196" y1="2.8553e5" y2="2.8606e5" gradientUnits="userSpaceOnUse" xlink:href="#b"></linearGradient>
  <linearGradient id="al" x1="77241" x2="76856" y1="2.8553e5" y2="2.8606e5" gradientUnits="userSpaceOnUse" xlink:href="#b"></linearGradient>
  <linearGradient id="ak" x1="83191" x2="82807" y1="2.8553e5" y2="2.8606e5" gradientUnits="userSpaceOnUse" xlink:href="#b"></linearGradient>
  <linearGradient id="aj" x1="88893" x2="88508" y1="2.8553e5" y2="2.8606e5" gradientUnits="userSpaceOnUse" xlink:href="#b"></linearGradient>
  <linearGradient id="ai" x1="94553" x2="94168" y1="2.8553e5" y2="2.8606e5" gradientUnits="userSpaceOnUse" xlink:href="#b"></linearGradient>
  <linearGradient id="ah" x1="1.0115e5" x2="1.0077e5" y1="2.8553e5" y2="2.8606e5" gradientUnits="userSpaceOnUse" xlink:href="#b"></linearGradient>
  <linearGradient id="af" x1="1.0685e5" x2="1.0647e5" y1="2.8553e5" y2="2.8606e5" gradientUnits="userSpaceOnUse" xlink:href="#b"></linearGradient>
  <linearGradient id="ae" x1="1.1251e5" x2="1.1213e5" y1="2.8553e5" y2="2.8606e5" gradientUnits="userSpaceOnUse" xlink:href="#b"></linearGradient>
  <linearGradient id="ad" x1="1.1943e5" x2="1.1904e5" y1="2.8553e5" y2="2.8606e5" gradientUnits="userSpaceOnUse" xlink:href="#b"></linearGradient>
  <linearGradient id="ac" x1="1.2513e5" x2="1.2475e5" y1="2.8553e5" y2="2.8606e5" gradientUnits="userSpaceOnUse" xlink:href="#b"></linearGradient>
  <linearGradient id="ab" x1="1.3079e5" x2="1.3041e5" y1="2.8553e5" y2="2.8606e5" gradientUnits="userSpaceOnUse" xlink:href="#b"></linearGradient>
  <linearGradient id="aa" x1="53961" x2="53493" y1="2.8561e5" y2="2.8598e5" gradientUnits="userSpaceOnUse" xlink:href="#a"></linearGradient>
  <linearGradient id="z" x1="59622" x2="59153" y1="2.8561e5" y2="2.8598e5" gradientUnits="userSpaceOnUse" xlink:href="#a"></linearGradient>
  <linearGradient id="y" x1="65921" x2="65452" y1="2.8561e5" y2="2.8598e5" gradientUnits="userSpaceOnUse" xlink:href="#a"></linearGradient>
  <linearGradient id="x" x1="71623" x2="71154" y1="2.8561e5" y2="2.8598e5" gradientUnits="userSpaceOnUse" xlink:href="#a"></linearGradient>
  <linearGradient id="v" x1="77283" x2="76814" y1="2.8561e5" y2="2.8598e5" gradientUnits="userSpaceOnUse" xlink:href="#a"></linearGradient>
  <linearGradient id="u" x1="83234" x2="82765" y1="2.8561e5" y2="2.8598e5" gradientUnits="userSpaceOnUse" xlink:href="#a"></linearGradient>
  <linearGradient id="t" x1="88935" x2="88466" y1="2.8561e5" y2="2.8598e5" gradientUnits="userSpaceOnUse" xlink:href="#a"></linearGradient>
  <linearGradient id="s" x1="94595" x2="94126" y1="2.8561e5" y2="2.8598e5" gradientUnits="userSpaceOnUse" xlink:href="#a"></linearGradient>
  <linearGradient id="r" x1="1.0119e5" x2="1.0072e5" y1="2.8561e5" y2="2.8598e5" gradientUnits="userSpaceOnUse" xlink:href="#a"></linearGradient>
  <linearGradient id="q" x1="1.0689e5" x2="1.0642e5" y1="2.8561e5" y2="2.8598e5" gradientUnits="userSpaceOnUse" xlink:href="#a"></linearGradient>
  <linearGradient id="p" x1="1.1256e5" x2="1.1209e5" y1="2.8561e5" y2="2.8598e5" gradientUnits="userSpaceOnUse" xlink:href="#a"></linearGradient>
  <linearGradient id="o" x1="1.1947e5" x2="1.19e5" y1="2.8561e5" y2="2.8598e5" gradientUnits="userSpaceOnUse" xlink:href="#a"></linearGradient>
  <linearGradient id="n" x1="1.2517e5" x2="1.247e5" y1="2.8561e5" y2="2.8598e5" gradientUnits="userSpaceOnUse" xlink:href="#a"></linearGradient>
  <linearGradient id="m" x1="1.3083e5" x2="1.3036e5" y1="2.8561e5" y2="2.8598e5" gradientUnits="userSpaceOnUse" xlink:href="#a"></linearGradient>
  <linearGradient id="h" x1="48260" x2="47791" y1="2.8561e5" y2="2.8598e5" gradientUnits="userSpaceOnUse" xlink:href="#a"/>
  <linearGradient id="g" x1="48217" x2="47833" y1="2.8553e5" y2="2.8606e5" gradientUnits="userSpaceOnUse" xlink:href="#b"/>
  <mask id="bn">
   <path d="m45482,285362h2990v1765h-2990z" fill="url(#bm)"/>
  </mask>
  <mask id="bb">
   <path d="m51184,285362h2990v1765h-2990z" fill="url(#aq)"/>
  </mask>
  <mask id="ag">
   <path d="m56844,285362h2990v1765h-2990z" fill="url(#w)"/>
  </mask>
  <mask id="l">
   <path d="m63144,285362h2990v1765h-2990z" fill="url(#k)"/>
  </mask>
  <mask id="j">
   <path d="m68846,285362h2990v1765h-2990z" fill="url(#i)"/>
  </mask>
  <mask id="bl">
   <path d="m74506,285362h2990v1765h-2990z" fill="url(#bk)"/>
  </mask>
  <mask id="bj">
   <path d="m80456,285362h2990v1765h-2990z" fill="url(#bi)"/>
  </mask>
  <mask id="bh">
   <path d="m86158,285362h2990v1765h-2990z" fill="url(#bg)"/>
  </mask>
  <mask id="bf">
   <path d="m91818,285362h2990v1765h-2990z" fill="url(#be)"/>
  </mask>
  <mask id="bd">
   <path d="m98415,285362h2990v1765h-2990z" fill="url(#bc)"/>
  </mask>
  <mask id="ba">
   <path d="m104117,285362h2990v1765h-2990z" fill="url(#az)"/>
  </mask>
  <mask id="ay">
   <path d="m109777,285362h2990v1765h-2990z" fill="url(#ax)"/>
  </mask>
  <mask id="aw">
   <path d="m116694,285362h2990v1765h-2990z" fill="url(#av)"/>
  </mask>
  <mask id="au">
   <path d="m122396,285362h2990v1765h-2990z" fill="url(#at)"/>
  </mask>
  <mask id="as">
   <path d="m128056,285362h2990v1765h-2990z" fill="url(#ar)"/>
  </mask>
  <radialGradient id="c" cx="82128" cy="1.7395e5" r="6944.4" gradientUnits="userSpaceOnUse">
   <stop stop-color="#fefefe" offset="0"/>
   <stop stop-color="#f5b06e" offset="1"/>
  </radialGradient>
  <radialGradient id="f" cx="89000" cy="1.1398e5" r="29577" gradientUnits="userSpaceOnUse">
   <stop stop-color="#ffc" offset="0"/>
   <stop stop-color="#ffba7f" offset="1"/>
  </radialGradient>
  <radialGradient id="e" cx="78032" cy="2.9278e5" r="6974.5" gradientUnits="userSpaceOnUse">
   <stop stop-color="#fefefe" offset="0"/>
   <stop stop-color="#f7caae" offset=".2"/>
   <stop stop-color="#f1965e" offset="1"/>
  </radialGradient>
  <radialGradient id="d" cx="1.241e5" cy="2.9451e5" r="6974.5" gradientUnits="userSpaceOnUse">
   <stop stop-color="#fefefe" offset="0"/>
   <stop stop-color="#f7caae" offset=".2706"/>
   <stop stop-color="#f1965e" offset="1"/>
  </radialGradient>
 </defs>
 <path d="m97051,286124c8953,518 17906,1036 26858,1554 19950,12129 8578,27088-9767,24195-6861-1752-13420-3936-18202-8657-6993-7053-3233-12126 1110-17092z"/>
 <path d="m97051,286124c8953,478 17906,955 26858,1433 18952,11631 8578,24984-9767,22315-6861-1616-13420-3630-18202-7984-6993-6505-3233-11184 1110-15764z" fill="#ccc" stroke="#000" stroke-width="128.51"/>
 <path d="m122552,289011-23751-1221c-3113,2645-7173,4926-4440,9877 6337,5462 13322,10818 24709,11529 2672,279 4359,69 4480-1429-791-1234-2688-1778-4217-2553 1894,842 3759,1767 5882,1998 2017,173 2425-617 2220-1776-1374-1541-3094-2041-4773-2664 1882,732 3686,1643 5882,1665 1202-108 1423-631 1221-1332-1164-1298-2642-1968-4106-2664 1532,682 3054,1445 4662,1442 1525-96 1586-863 1332-1775-982-1082-2309-1403-3662-1665 1416,181 2837,379 4217,444 1053-236 1037-1010 389-2136-2151-3944-6256-5691-10044-7741z" fill="url(#d)" stroke="#000" stroke-linecap="round" stroke-linejoin="round" stroke-width="421.63"/>
 <path d="m130445,292808-3455-3054c-8413,4069-14682,9688-19496,18317 2261,616 4476,1216 6648,1802 2973-7329 8889-12694 16302-17064z" fill="#1d1819" stroke="#000" stroke-width="128.51"/>
 <path d="m82185,286124-26859,1554c-19950,12129-8578,27088 9767,24195 6861-1752 13420-3936 18202-8657 6993-7053 3233-12126-1110-17092z"/>
 <path d="m82185,286124c-8953,478-17906,955-26859,1433-18952,11631-8578,24984 9767,22315 6861-1616 13420-3630 18202-7984 6993-6505 3233-11184-1110-15764z" fill="#ccc" stroke="#000" stroke-width="128.51"/>
 <path d="m56684,289011 23751-1221c3113,2645 7173,4926 4440,9877-6337,5462-13322,10818-24709,11529-2672,279-4358,69-4480-1429 791-1234 2688-1778 4217-2553-1894,842-3759,1767-5882,1998-2016,173-2425-617-2220-1776 1374-1541 3094-2041 4772-2664-1881,732-3686,1643-5882,1665-1202-108-1424-631-1221-1332 1164-1298 2642-1968 4107-2664-1532,682-3054,1445-4662,1442-1525-96-1586-863-1332-1775 982-1082 2309-1403 3662-1665-1417,181-2837,379-4217,444-1053-236-1037-1010-389-2136 2151-3944 6256-5691 10044-7741z" fill="url(#e)" stroke="#000" stroke-linecap="round" stroke-linejoin="round" stroke-width="421.63"/>
 <path d="m48791,292808 3455-3054c8413,4069 14682,9688 19496,18317-2261,616-4476,1216-6648,1802-2973-7329-8890-12694-16302-17064z" fill="#1d1819" stroke="#000" stroke-width="128.51"/>
 <path d="m136329,278414c-15316-1480-30632-2959-45948-4439-16130,1480-32260,2959-48389,4439 779,4196 1145,8309 444,12209 32037-287 64074-573 96111-860-1804-2895-2192-6971-2218-11349z" fill="#e62129" stroke="#000" stroke-linecap="round" stroke-linejoin="round" stroke-width="337.3"/>
 <path d="m89001,183743-50782,26415c2972,24596 480,47992-1332,71475l49277,222 2836-3107 2836,3107 49277-222c-1811-23483-4304-46879-1332-71475l-50782-26415z" fill="#fffcdb" stroke="#1d1819" stroke-linecap="round" stroke-linejoin="round" stroke-width="337.3"/>
 <path d="m89001,190843c1386,12673 4239,56505 8879,65923 12142-34157 851-24232 19534-29744 13836-4957 13910-26341 20865-39511 5586-17313 25822-30521 32408-47946 9654-26291 10772-54208-4439-85236-12457-19861-27035-38013-50165-49277-8350-3711-17676-4597-27081-4884-9405,286-18731,1173-27081,4884-23131,11264-37708,29417-50165,49277-15211,31028-14093,58946-4439,85236 6586,17425 26821,30633 32408,47946 6955,13170 7029,34554 20865,39511 19274,6696 20125,21050 19534,29744 6089,3621 9004-39652 8879-65923z" fill="#fefefe" stroke="#1d1819" stroke-linecap="round" stroke-linejoin="round" stroke-width="337.3"/>
 <path d="m89001 51725c37579-2003 61125 10197 81357 25749 6919 6291 5973 26579 2663 39955-7953 30128-28185 43113-50387 52274-11386 4311-21947 7219-33633 8546-11686-1327-22247-4234-33633-8546-22202-9161-42434-22145-50387-52274-3310-13376-4255-33664 2663-39955 20232-15552 43778-27752 81357-25749z" fill="url(#f)" stroke="#1d1819" stroke-linecap="round" stroke-linejoin="round" stroke-width="337.3"/>
 <path d="m28625 82075c11946-14262 27454-13151 38623-1665" fill="none" stroke="#1d1819" stroke-linecap="round" stroke-linejoin="round" stroke-width="843.26"/>
 <path d="m109616,81908c11946-14262 27454-13151 38623-1665" fill="none" stroke="#1d1819" stroke-linecap="round" stroke-linejoin="round" stroke-width="843.26"/>
 <path d="m70994,110542a22891,22891 0 1,0 -45782,0 22891,22891 0 1,0 45782,0" fill="#fff" stroke="#1d1819" stroke-width="421.63"/>
 <path d="m70837,112290a16648,16648 0 1,0 -33296,0 16648,16648 0 1,0 33296,0" fill="#1d1819"/>
 <path d="m58281,109336a8981,8981 0 1,0 -17962,0 8981,8981 0 1,0 17962,0" fill="#fff"/>
 <path d="m152068,110542a22891,22891 0 1,0 -45782,0 22891,22891 0 1,0 45782,0" fill="#fff" stroke="#1d1819" stroke-width="421.63"/>
 <path d="m139739,112290a16648,16648 0 1,0 -33296,0 16648,16648 0 1,0 33296,0" fill="#1d1819"/>
 <path d="m136960,109336a8981,8981 0 1,0 -17962,0 8981,8981 0 1,0 17962,0" fill="#fff"/>
 <path d="m68254,149469c11946,14262 27455,13151 38623,1665" fill="none" stroke="#1d1819" stroke-linecap="round" stroke-linejoin="round" stroke-width="843.26"/>
 <path d="m92611,139742a1554,1554 0 1,0 -3108,0 1554,1554 0 1,0 3108,0"/>
 <path d="m87617,139964a1554,1554 0 1,0 -3108,0 1554,1554 0 1,0 3108,0"/>
 <path d="m80084,194672c-1609-3829-3219-7658-4828-11487 410-2714 517-5376 2331-8324 2280-5274 4325-10430 6160-15483 835-2817 3066-4470 5254-6160v37624c-735,909-1521,1702-2590,1831-2411-138-4295,1126-6326,1998z" fill="url(#c)" stroke="#1d1819" stroke-linecap="round" stroke-linejoin="round" stroke-width="421.63"/>
 <path d="m25425,200637c11698-12854 31364-17944 46836-27691 4596,6133 8669,12455 10821,19478 1976,5172 1593,8932 833,12985-13975,11468-33638,9619-47835,8879-4583-308-8458-1523-11487-3829-2283-3530-1326-6736 833-9822z" fill="#fff" stroke="#1d1819" stroke-linecap="round" stroke-linejoin="round" stroke-width="421.63"/>
 <path d="m53878,182530c8781,8852 12808,19191 12119,31003" fill="none" stroke="#1d1819" stroke-width="337.3"/>
 <path d="m97916,194672c1609-3829 3219-7658 4828-11487-410-2714-517-5376-2331-8324-2280-5274-4325-10430-6160-15483-834-2817-3066-4470-5254-6160v37624c735,909 1521,1702 2590,1831 2411-138 4295,1126 6326,1998z" fill="url(#c)" stroke="#1d1819" stroke-linecap="round" stroke-linejoin="round" stroke-width="421.63"/>
 <path d="m152576,200637c-11698-12854-31364-17944-46836-27691-4596,6133-8669,12455-10821,19478-1976,5172-1593,8932-833,12985 13975,11468 33638,9619 47835,8879 4583-308 8459-1523 11487-3829 2283-3530 1326-6736-832-9822z" fill="#fff" stroke="#1d1819" stroke-linecap="round" stroke-linejoin="round" stroke-width="421.63"/>
 <path d="m124123,182530c-8781,8852-12808,19191-12119,31003" fill="none" stroke="#1d1819" stroke-width="337.3"/>
 <path d="m41821,275038 1134-1441 1133,1441-1133,1442z" fill="#cf788a" stroke="#cf788a" stroke-width="128.51"/>
 <path d="m46709,275038 1133-1441 1133,1441-1133,1442z" fill="#cf788a" stroke="#cf788a" stroke-width="128.51"/>
 <path d="m50210,275038 1133-1441 1133,1441-1133,1442z" fill="#cf788a" stroke="#cf788a" stroke-width="128.51"/>
 <path d="m55791,275038 1133-1441 1134,1441-1134,1442z" fill="#cf788a" stroke="#cf788a" stroke-width="128.51"/>
 <path d="m60679,275038 1133-1441 1133,1441-1133,1442z" fill="#cf788a" stroke="#cf788a" stroke-width="128.51"/>
 <path d="m65298,275038 1134-1441 1133,1441-1133,1442z" fill="#cf788a" stroke="#cf788a" stroke-width="128.51"/>
 <path d="m70677,275038 1134-1441 1133,1441-1133,1442z" fill="#cf788a" stroke="#cf788a" stroke-width="128.51"/>
 <path d="m75340,275038 1133-1441 1133,1441-1133,1442z" fill="#cf788a" stroke="#cf788a" stroke-width="128.51"/>
 <path d="m80056,275038 1133-1441 1133,1441-1133,1442z" fill="#cf788a" stroke="#cf788a" stroke-width="128.51"/>
 <path d="m94248,274924 1134-1442 1133,1442-1133,1441z" fill="#cf788a" stroke="#cf788a" stroke-width="128.51"/>
 <path d="m99136,274924 1133-1442 1133,1442-1133,1441z" fill="#cf788a" stroke="#cf788a" stroke-width="128.51"/>
 <path d="m102636,274924 1134-1442 1133,1442-1133,1441z" fill="#cf788a" stroke="#cf788a" stroke-width="128.51"/>
 <path d="m108218,274924 1134-1442 1133,1442-1133,1441z" fill="#cf788a" stroke="#cf788a" stroke-width="128.51"/>
 <path d="m113105,274924 1134-1442 1133,1442-1133,1441z" fill="#cf788a" stroke="#cf788a" stroke-width="128.51"/>
 <path d="m117725,274924 1134-1442 1133,1442-1133,1441z" fill="#cf788a" stroke="#cf788a" stroke-width="128.51"/>
 <path d="m123104,274924 1133-1442 1134,1442-1134,1441z" fill="#cf788a" stroke="#cf788a" stroke-width="128.51"/>
 <path d="m127767,274924 1133-1442 1133,1442-1133,1441z" fill="#cf788a" stroke="#cf788a" stroke-width="128.51"/>
 <path d="m132483,274924 1133-1442 1133,1442-1133,1441z" fill="#cf788a" stroke="#cf788a" stroke-width="128.51"/>
 <path d="m46048 2.868e5c-76 38-115 57-181 95-67 38-320 172-320 172s177-39 272-96 86-48 172-95c86-48 115-86 115-86l-57 10zm-19-162c-80-16-185 42-137 71s41 15 89-4 95-57 95-57l-48-10zm1983-1197c157-38 186 47 219 74l108 89s166 175-15 252c-181 78-280 162-545 259s-367 74-565 180-184 203-446 339-648 337-648 337l156-156s-13-60-54-59c-138 5-59-180-75-179s-157-48-157-48l207-78c26-130 130-155 130-155s165-179 347-257c492-55 1120-545 1339-599zm-1649 978c296-124 267-76 372-153 126-92 575-337 249-168-144 75-222 219-402 274s-251 113-259 118l-107 64 147-134z" fill="#ef92ba" mask="url(#bn)"/>
 <path d="m46415,286284c162-57 220-105 372-172 153-67 238-124 286-124s-48,57-162,105c-115,48-267,105-334,134s-210,124-210,124l48-67z" fill="#5aa99e"/>
 <path d="m47505,285774c-143,67-353,172-200,115s172-57 238-86c67-29 86-76 86-76l-124,48z" fill="#5aa99e"/>
 <path d="m48027,285435c-79,0 66,48 104,95 38,48-52,79-109,98s-133,49-133,87-10,26-10,26 268-63 58,52-121,41-143,66 86,10 134,10-57,85 67,66 130-84 206-103 127-60 160-19c33,42 59-86 17-161s-57-64-80-85l-73-67-64-38-32-28h-102z" fill="url(#h)"/>
 <path d="m47623,286007c-80,5-130,25-195,50s-365,145-300,140 295-120 325-135 130-5 130-5 50-15 85-20 15-35 15-35l-60,5z" fill="#c9caca"/>
 <path d="m46372,286613c162-57 220-105 372-172 153-67 239-124 286-124 48,0-48,57-162,105-115,48-267,105-334,134s-210,124-210,124l48-67z" fill="#5aa99e"/>
 <path d="m46586,286618c-143,67-353,172-201,115 153-57 172-57 239-86s86-76 86-76l-124,48z" fill="#5aa99e"/>
 <path d="m46415,286284c162-57 220-105 372-172 153-67 238-124 286-124s-48,57-162,105c-115,48-267,105-334,134s-210,124-210,124l48-67z" fill="#ef92ba"/>
 <path d="m47505,285774c-143,67-353,172-200,115s172-57 238-86c67-29 86-76 86-76l-124,48z" fill="#ef92ba"/>
 <path d="m48027,285435c-79,0 66,48 104,95 38,48-52,79-109,98s-133,49-133,87-10,26-10,26 268-63 58,52-121,41-143,66 86,10 134,10-57,85 67,66 130-84 206-103 127-60 160-19c33,42 59-86 17-161s-57-64-80-85l-73-67-64-38-32-28h-102z" fill="url(#g)"/>
 <path d="m47623,286007c-80,5-130,25-195,50s-365,145-300,140 295-120 325-135 130-5 130-5 50-15 85-20 15-35 15-35l-60,5z" fill="#eed1db"/>
 <path d="m46372,286613c162-57 220-105 372-172 153-67 239-124 286-124 48,0-48,57-162,105-115,48-267,105-334,134s-210,124-210,124l48-67z" fill="#ef92ba"/>
 <path d="m46586,286618c-143,67-353,172-201,115 153-57 172-57 239-86s86-76 86-76l-124,48z" fill="#ef92ba"/>
 <path d="m51750 2.868e5c-76 38-115 57-181 95-67 38-320 172-320 172s177-39 272-96 86-48 172-95c86-48 115-86 115-86l-57 10zm-19-162c-80-16-185 42-137 71s41 15 89-4 95-57 95-57l-48-10zm1983-1197c157-38 186 47 219 74l108 89s166 175-15 252c-181 78-280 162-545 259s-367 74-565 180-184 203-446 339-648 337-648 337l156-156s-13-60-54-59c-138 5-59-180-75-179s-157-48-157-48l207-78c26-130 130-155 130-155s165-179 347-257c492-55 1120-545 1339-599zm-1649 978c296-124 267-76 372-153 126-92 575-337 249-168-144 75-222 219-402 274s-251 113-259 118l-107 64 147-134z" fill="#ef92ba" mask="url(#bb)"/>
 <path d="m52117,286284c162-57 220-105 372-172 153-67 238-124 286-124s-48,57-162,105c-115,48-267,105-334,134s-210,124-210,124l48-67z" fill="#5aa99e"/>
 <path d="m53207,285774c-143,67-353,172-200,115s172-57 238-86c67-29 86-76 86-76l-124,48z" fill="#5aa99e"/>
 <path d="m53729,285435c-79,0 66,48 104,95 38,48-52,79-109,98s-133,49-133,87-10,26-10,26 268-63 58,52-121,41-143,66 86,10 134,10-57,85 67,66 130-84 206-103 127-60 160-19c33,42 59-86 17-161s-57-64-80-85l-73-67-64-38-32-28h-102z" fill="url(#aa)"/>
 <path d="m53324,286007c-80,5-130,25-195,50s-365,145-300,140 295-120 325-135 130-5 130-5 50-15 85-20 15-35 15-35l-60,5z" fill="#c9caca"/>
 <path d="m52074,286613c162-57 220-105 372-172 153-67 239-124 286-124 48,0-48,57-162,105-115,48-267,105-334,134s-210,124-210,124l48-67z" fill="#5aa99e"/>
 <path d="m52288,286618c-143,67-353,172-201,115 153-57 172-57 239-86s86-76 86-76l-124,48z" fill="#5aa99e"/>
 <path d="m52117,286284c162-57 220-105 372-172 153-67 238-124 286-124s-48,57-162,105c-115,48-267,105-334,134s-210,124-210,124l48-67z" fill="#ef92ba"/>
 <path d="m53207,285774c-143,67-353,172-200,115s172-57 238-86c67-29 86-76 86-76l-124,48z" fill="#ef92ba"/>
 <path d="m53729,285435c-79,0 66,48 104,95 38,48-52,79-109,98s-133,49-133,87-10,26-10,26 268-63 58,52-121,41-143,66 86,10 134,10-57,85 67,66 130-84 206-103 127-60 160-19c33,42 59-86 17-161s-57-64-80-85l-73-67-64-38-32-28h-102z" fill="url(#ap)"/>
 <path d="m53324,286007c-80,5-130,25-195,50s-365,145-300,140 295-120 325-135 130-5 130-5 50-15 85-20 15-35 15-35l-60,5z" fill="#eed1db"/>
 <path d="m52074,286613c162-57 220-105 372-172 153-67 239-124 286-124 48,0-48,57-162,105-115,48-267,105-334,134s-210,124-210,124l48-67z" fill="#ef92ba"/>
 <path d="m52288,286618c-143,67-353,172-201,115 153-57 172-57 239-86s86-76 86-76l-124,48z" fill="#ef92ba"/>
 <path d="m57410 2.868e5c-76 38-115 57-181 95-67 38-320 172-320 172s177-39 272-96 86-48 172-95c86-48 115-86 115-86l-57 10zm-19-162c-80-16-185 42-137 71s41 15 89-4 95-57 95-57l-48-10zm1983-1197c157-38 186 47 219 74l108 89s166 175-15 252c-181 78-280 162-545 259s-367 74-565 180-184 203-446 339-648 337-648 337l156-156s-13-60-54-59c-138 5-59-180-75-179s-157-48-157-48l207-78c26-130 130-155 130-155s165-179 347-257c492-55 1120-545 1339-599zm-1649 978c296-124 267-76 372-153 126-92 575-337 249-168-144 75-222 219-402 274s-251 113-259 118l-107 64 147-134z" fill="#ef92ba" mask="url(#ag)"/>
 <path d="m57777,286284c162-57 220-105 372-172 153-67 238-124 286-124s-48,57-162,105c-115,48-267,105-334,134s-210,124-210,124l48-67z" fill="#5aa99e"/>
 <path d="m58867,285774c-143,67-353,172-200,115s172-57 238-86c67-29 86-76 86-76l-124,48z" fill="#5aa99e"/>
 <path d="m59389,285435c-79,0 66,48 104,95 38,48-52,79-109,98s-133,49-133,87-10,26-10,26 268-63 58,52-121,41-143,66 86,10 134,10-57,85 67,66 130-84 206-103 127-60 160-19c33,42 59-86 17-161s-57-64-80-85l-73-67-64-38-32-28h-102z" fill="url(#z)"/>
 <path d="m58985,286007c-80,5-130,25-195,50s-365,145-300,140 295-120 325-135 130-5 130-5 50-15 85-20 15-35 15-35l-60,5z" fill="#c9caca"/>
 <path d="m57734,286613c162-57 220-105 372-172 153-67 239-124 286-124 48,0-48,57-162,105-115,48-267,105-334,134s-210,124-210,124l48-67z" fill="#5aa99e"/>
 <path d="m57948,286618c-143,67-353,172-201,115 153-57 172-57 239-86s86-76 86-76l-124,48z" fill="#5aa99e"/>
 <path d="m57777,286284c162-57 220-105 372-172 153-67 238-124 286-124s-48,57-162,105c-115,48-267,105-334,134s-210,124-210,124l48-67z" fill="#ef92ba"/>
 <path d="m58867,285774c-143,67-353,172-200,115s172-57 238-86c67-29 86-76 86-76l-124,48z" fill="#ef92ba"/>
 <path d="m59389,285435c-79,0 66,48 104,95 38,48-52,79-109,98s-133,49-133,87-10,26-10,26 268-63 58,52-121,41-143,66 86,10 134,10-57,85 67,66 130-84 206-103 127-60 160-19c33,42 59-86 17-161s-57-64-80-85l-73-67-64-38-32-28h-102z" fill="url(#ao)"/>
 <path d="m58985,286007c-80,5-130,25-195,50s-365,145-300,140 295-120 325-135 130-5 130-5 50-15 85-20 15-35 15-35l-60,5z" fill="#eed1db"/>
 <path d="m57734,286613c162-57 220-105 372-172 153-67 239-124 286-124 48,0-48,57-162,105-115,48-267,105-334,134s-210,124-210,124l48-67z" fill="#ef92ba"/>
 <path d="m57948,286618c-143,67-353,172-201,115 153-57 172-57 239-86s86-76 86-76l-124,48z" fill="#ef92ba"/>
 <path d="m63709 2.868e5c-76 38-115 57-181 95-67 38-320 172-320 172s177-39 272-96 86-48 172-95c86-48 115-86 115-86l-57 10zm-19-162c-80-16-185 42-137 71s41 15 89-4 95-57 95-57l-48-10zm1983-1197c157-38 186 47 219 74l108 89s166 175-15 252c-181 78-280 162-545 259s-367 74-565 180-184 203-446 339-648 337-648 337l156-156s-13-60-54-59c-138 5-59-180-75-179s-157-48-157-48l207-78c26-130 130-155 130-155s165-179 347-257c492-55 1120-545 1339-599zm-1649 978c296-124 267-76 372-153 126-92 575-337 249-168-144 75-222 219-402 274s-251 113-259 118l-107 64 147-134z" fill="#ef92ba" mask="url(#l)"/>
 <path d="m64077,286284c162-57 220-105 372-172 153-67 238-124 286-124s-48,57-162,105c-115,48-267,105-334,134s-210,124-210,124l48-67z" fill="#5aa99e"/>
 <path d="m65167,285774c-143,67-353,172-200,115s172-57 238-86c67-29 86-76 86-76l-124,48z" fill="#5aa99e"/>
 <path d="m65689,285435c-79,0 66,48 104,95 38,48-52,79-109,98s-133,49-133,87-10,26-10,26 268-63 58,52-121,41-143,66 86,10 134,10-57,85 67,66 130-84 206-103 127-60 160-19c33,42 59-86 17-161s-57-64-80-85l-73-67-64-38-32-28h-102z" fill="url(#y)"/>
 <path d="m65284,286007c-80,5-130,25-195,50s-365,145-300,140 295-120 325-135 130-5 130-5 50-15 85-20 15-35 15-35l-60,5z" fill="#c9caca"/>
 <path d="m64033,286613c162-57 220-105 372-172 153-67 239-124 286-124 48,0-48,57-162,105-115,48-267,105-334,134s-210,124-210,124l48-67z" fill="#5aa99e"/>
 <path d="m64248,286618c-143,67-353,172-201,115 153-57 172-57 239-86s86-76 86-76l-124,48z" fill="#5aa99e"/>
 <path d="m64077,286284c162-57 220-105 372-172 153-67 238-124 286-124s-48,57-162,105c-115,48-267,105-334,134s-210,124-210,124l48-67z" fill="#ef92ba"/>
 <path d="m65167,285774c-143,67-353,172-200,115s172-57 238-86c67-29 86-76 86-76l-124,48z" fill="#ef92ba"/>
 <path d="m65689,285435c-79,0 66,48 104,95 38,48-52,79-109,98s-133,49-133,87-10,26-10,26 268-63 58,52-121,41-143,66 86,10 134,10-57,85 67,66 130-84 206-103 127-60 160-19c33,42 59-86 17-161s-57-64-80-85l-73-67-64-38-32-28h-102z" fill="url(#an)"/>
 <path d="m65284,286007c-80,5-130,25-195,50s-365,145-300,140 295-120 325-135 130-5 130-5 50-15 85-20 15-35 15-35l-60,5z" fill="#eed1db"/>
 <path d="m64033,286613c162-57 220-105 372-172 153-67 239-124 286-124 48,0-48,57-162,105-115,48-267,105-334,134s-210,124-210,124l48-67z" fill="#ef92ba"/>
 <path d="m64248,286618c-143,67-353,172-201,115 153-57 172-57 239-86s86-76 86-76l-124,48z" fill="#ef92ba"/>
 <path d="m69411 2.868e5c-76 38-115 57-181 95-67 38-320 172-320 172s177-39 272-96 86-48 172-95c86-48 115-86 115-86l-57 10zm-19-162c-80-16-185 42-137 71s41 15 89-4 95-57 95-57l-48-10zm1983-1197c157-38 186 47 219 74l108 89s166 175-15 252c-181 78-280 162-545 259s-367 74-565 180-184 203-446 339-648 337-648 337l156-156s-13-60-54-59c-138 5-59-180-75-179s-157-48-157-48l207-78c26-130 130-155 130-155s165-179 347-257c492-55 1120-545 1339-599zm-1649 978c296-124 267-76 372-153 126-92 575-337 249-168-144 75-222 219-402 274s-251 113-259 118l-107 64 147-134z" fill="#ef92ba" mask="url(#j)"/>
 <path d="m69778,286284c162-57 220-105 372-172 153-67 238-124 286-124s-48,57-162,105c-115,48-267,105-334,134s-210,124-210,124l48-67z" fill="#5aa99e"/>
 <path d="m70869,285774c-143,67-353,172-200,115s172-57 238-86c67-29 86-76 86-76l-124,48z" fill="#5aa99e"/>
 <path d="m71390,285435c-79,0 66,48 104,95 38,48-52,79-109,98s-133,49-133,87-10,26-10,26 268-63 58,52-121,41-143,66 86,10 134,10-57,85 67,66 130-84 206-103 127-60 160-19c33,42 59-86 17-161s-57-64-80-85l-73-67-64-38-32-28h-102z" fill="url(#x)"/>
 <path d="m70986,286007c-80,5-130,25-195,50s-365,145-300,140 295-120 325-135 130-5 130-5 50-15 85-20 15-35 15-35l-60,5z" fill="#c9caca"/>
 <path d="m69735,286613c162-57 220-105 372-172 153-67 239-124 286-124 48,0-48,57-162,105-115,48-267,105-334,134s-210,124-210,124l48-67z" fill="#5aa99e"/>
 <path d="m69949,286618c-143,67-353,172-201,115 153-57 172-57 239-86s86-76 86-76l-124,48z" fill="#5aa99e"/>
 <path d="m69778,286284c162-57 220-105 372-172 153-67 238-124 286-124s-48,57-162,105c-115,48-267,105-334,134s-210,124-210,124l48-67z" fill="#ef92ba"/>
 <path d="m70869,285774c-143,67-353,172-200,115s172-57 238-86c67-29 86-76 86-76l-124,48z" fill="#ef92ba"/>
 <path d="m71390,285435c-79,0 66,48 104,95 38,48-52,79-109,98s-133,49-133,87-10,26-10,26 268-63 58,52-121,41-143,66 86,10 134,10-57,85 67,66 130-84 206-103 127-60 160-19c33,42 59-86 17-161s-57-64-80-85l-73-67-64-38-32-28h-102z" fill="url(#am)"/>
 <path d="m70986,286007c-80,5-130,25-195,50s-365,145-300,140 295-120 325-135 130-5 130-5 50-15 85-20 15-35 15-35l-60,5z" fill="#eed1db"/>
 <path d="m69735,286613c162-57 220-105 372-172 153-67 239-124 286-124 48,0-48,57-162,105-115,48-267,105-334,134s-210,124-210,124l48-67z" fill="#ef92ba"/>
 <path d="m69949,286618c-143,67-353,172-201,115 153-57 172-57 239-86s86-76 86-76l-124,48z" fill="#ef92ba"/>
 <path d="m75071 2.868e5c-76 38-115 57-181 95-67 38-320 172-320 172s177-39 272-96 86-48 172-95c86-48 115-86 115-86l-57 10zm-19-162c-80-16-185 42-137 71s41 15 89-4 95-57 95-57l-48-10zm1983-1197c157-38 186 47 219 74l108 89s166 175-15 252c-181 78-280 162-545 259s-367 74-565 180-184 203-446 339-648 337-648 337l156-156s-13-60-54-59c-138 5-59-180-75-179s-157-48-157-48l207-78c26-130 130-155 130-155s165-179 347-257c492-55 1120-545 1339-599zm-1649 978c296-124 267-76 372-153 126-92 575-337 249-168-144 75-222 219-402 274s-251 113-259 118l-107 64 147-134z" fill="#ef92ba" mask="url(#bl)"/>
 <path d="m75438,286284c162-57 220-105 372-172 153-67 238-124 286-124s-48,57-162,105c-115,48-267,105-334,134s-210,124-210,124l48-67z" fill="#5aa99e"/>
 <path d="m76529,285774c-143,67-353,172-200,115s172-57 238-86c67-29 86-76 86-76l-124,48z" fill="#5aa99e"/>
 <path d="m77051,285435c-79,0 66,48 104,95 38,48-52,79-109,98s-133,49-133,87-10,26-10,26 268-63 58,52-121,41-143,66 86,10 134,10-57,85 67,66 130-84 206-103 127-60 160-19c33,42 59-86 17-161s-57-64-80-85l-73-67-64-38-32-28h-102z" fill="url(#v)"/>
 <path d="m76646,286007c-80,5-130,25-195,50s-365,145-300,140 295-120 325-135 130-5 130-5 50-15 85-20 15-35 15-35l-60,5z" fill="#c9caca"/>
 <path d="m75395,286613c162-57 220-105 372-172 153-67 239-124 286-124 48,0-48,57-162,105-115,48-267,105-334,134s-210,124-210,124l48-67z" fill="#5aa99e"/>
 <path d="m75609,286618c-143,67-353,172-201,115 153-57 172-57 239-86s86-76 86-76l-124,48z" fill="#5aa99e"/>
 <path d="m75438,286284c162-57 220-105 372-172 153-67 238-124 286-124s-48,57-162,105c-115,48-267,105-334,134s-210,124-210,124l48-67z" fill="#ef92ba"/>
 <path d="m76529,285774c-143,67-353,172-200,115s172-57 238-86c67-29 86-76 86-76l-124,48z" fill="#ef92ba"/>
 <path d="m77051,285435c-79,0 66,48 104,95 38,48-52,79-109,98s-133,49-133,87-10,26-10,26 268-63 58,52-121,41-143,66 86,10 134,10-57,85 67,66 130-84 206-103 127-60 160-19c33,42 59-86 17-161s-57-64-80-85l-73-67-64-38-32-28h-102z" fill="url(#al)"/>
 <path d="m76646,286007c-80,5-130,25-195,50s-365,145-300,140 295-120 325-135 130-5 130-5 50-15 85-20 15-35 15-35l-60,5z" fill="#eed1db"/>
 <path d="m75395,286613c162-57 220-105 372-172 153-67 239-124 286-124 48,0-48,57-162,105-115,48-267,105-334,134s-210,124-210,124l48-67z" fill="#ef92ba"/>
 <path d="m75609,286618c-143,67-353,172-201,115 153-57 172-57 239-86s86-76 86-76l-124,48z" fill="#ef92ba"/>
 <path d="m81022 2.868e5c-76 38-115 57-181 95-67 38-320 172-320 172s177-39 272-96 86-48 172-95c86-48 115-86 115-86l-57 10zm-19-162c-80-16-185 42-137 71s41 15 89-4 95-57 95-57l-48-10zm1983-1197c157-38 186 47 219 74l108 89s166 175-15 252c-181 78-280 162-545 259s-367 74-565 180-184 203-446 339-648 337-648 337l156-156s-13-60-54-59c-138 5-59-180-75-179s-157-48-157-48l207-78c26-130 130-155 130-155s165-179 347-257c492-55 1120-545 1339-599zm-1649 978c296-124 267-76 372-153 126-92 575-337 249-168-144 75-222 219-402 274s-251 113-259 118l-107 64 147-134z" fill="#ef92ba" mask="url(#bj)"/>
 <path d="m81389,286284c162-57 220-105 372-172 153-67 238-124 286-124s-48,57-162,105c-115,48-267,105-334,134s-210,124-210,124l48-67z" fill="#5aa99e"/>
 <path d="m82479,285774c-143,67-353,172-200,115s172-57 238-86c67-29 86-76 86-76l-124,48z" fill="#5aa99e"/>
 <path d="m83001,285435c-79,0 66,48 104,95 38,48-52,79-109,98s-133,49-133,87-10,26-10,26 268-63 58,52-121,41-143,66 86,10 134,10-57,85 67,66 130-84 206-103 127-60 160-19c33,42 59-86 17-161s-57-64-80-85l-73-67-64-38-32-28h-102z" fill="url(#u)"/>
 <path d="m82597,286007c-80,5-130,25-195,50s-365,145-300,140 295-120 325-135 130-5 130-5 50-15 85-20 15-35 15-35l-60,5z" fill="#c9caca"/>
 <path d="m81346,286613c162-57 220-105 372-172 153-67 239-124 286-124 48,0-48,57-162,105-115,48-267,105-334,134s-210,124-210,124l48-67z" fill="#5aa99e"/>
 <path d="m81560,286618c-143,67-353,172-201,115 153-57 172-57 239-86s86-76 86-76l-124,48z" fill="#5aa99e"/>
 <path d="m81389,286284c162-57 220-105 372-172 153-67 238-124 286-124s-48,57-162,105c-115,48-267,105-334,134s-210,124-210,124l48-67z" fill="#ef92ba"/>
 <path d="m82479,285774c-143,67-353,172-200,115s172-57 238-86c67-29 86-76 86-76l-124,48z" fill="#ef92ba"/>
 <path d="m83001,285435c-79,0 66,48 104,95 38,48-52,79-109,98s-133,49-133,87-10,26-10,26 268-63 58,52-121,41-143,66 86,10 134,10-57,85 67,66 130-84 206-103 127-60 160-19c33,42 59-86 17-161s-57-64-80-85l-73-67-64-38-32-28h-102z" fill="url(#ak)"/>
 <path d="m82597,286007c-80,5-130,25-195,50s-365,145-300,140 295-120 325-135 130-5 130-5 50-15 85-20 15-35 15-35l-60,5z" fill="#eed1db"/>
 <path d="m81346,286613c162-57 220-105 372-172 153-67 239-124 286-124 48,0-48,57-162,105-115,48-267,105-334,134s-210,124-210,124l48-67z" fill="#ef92ba"/>
 <path d="m81560,286618c-143,67-353,172-201,115 153-57 172-57 239-86s86-76 86-76l-124,48z" fill="#ef92ba"/>
 <path d="m86723 2.868e5c-76 38-115 57-181 95-67 38-320 172-320 172s177-39 272-96 86-48 172-95c86-48 115-86 115-86l-57 10zm-19-162c-80-16-185 42-137 71s41 15 89-4 95-57 95-57l-48-10zm1983-1197c157-38 186 47 219 74l108 89s166 175-15 252c-181 78-280 162-545 259s-367 74-565 180-184 203-446 339-648 337-648 337l156-156s-13-60-54-59c-138 5-59-180-75-179s-157-48-157-48l207-78c26-130 130-155 130-155s165-179 347-257c492-55 1120-545 1339-599zm-1649 978c296-124 267-76 372-153 126-92 575-337 249-168-144 75-222 219-402 274s-251 113-259 118l-107 64 147-134z" fill="#ef92ba" mask="url(#bh)"/>
 <path d="m87090,286284c162-57 220-105 372-172 153-67 238-124 286-124s-48,57-162,105c-115,48-267,105-334,134s-210,124-210,124l48-67z" fill="#5aa99e"/>
 <path d="m88181,285774c-143,67-353,172-200,115s172-57 238-86c67-29 86-76 86-76l-124,48z" fill="#5aa99e"/>
 <path d="m88703,285435c-79,0 66,48 104,95 38,48-52,79-109,98s-133,49-133,87-10,26-10,26 268-63 58,52-121,41-143,66 86,10 134,10-57,85 67,66 130-84 206-103 127-60 160-19c33,42 59-86 17-161s-57-64-80-85l-73-67-64-38-32-28h-102z" fill="url(#t)"/>
 <path d="m88298,286007c-80,5-130,25-195,50s-365,145-300,140 295-120 325-135 130-5 130-5 50-15 85-20 15-35 15-35l-60,5z" fill="#c9caca"/>
 <path d="m87047,286613c162-57 220-105 372-172 153-67 239-124 286-124 48,0-48,57-162,105-115,48-267,105-334,134s-210,124-210,124l48-67z" fill="#5aa99e"/>
 <path d="m87261,286618c-143,67-353,172-201,115 153-57 172-57 239-86s86-76 86-76l-124,48z" fill="#5aa99e"/>
 <path d="m87090,286284c162-57 220-105 372-172 153-67 238-124 286-124s-48,57-162,105c-115,48-267,105-334,134s-210,124-210,124l48-67z" fill="#ef92ba"/>
 <path d="m88181,285774c-143,67-353,172-200,115s172-57 238-86c67-29 86-76 86-76l-124,48z" fill="#ef92ba"/>
 <path d="m88703,285435c-79,0 66,48 104,95 38,48-52,79-109,98s-133,49-133,87-10,26-10,26 268-63 58,52-121,41-143,66 86,10 134,10-57,85 67,66 130-84 206-103 127-60 160-19c33,42 59-86 17-161s-57-64-80-85l-73-67-64-38-32-28h-102z" fill="url(#aj)"/>
 <path d="m88298,286007c-80,5-130,25-195,50s-365,145-300,140 295-120 325-135 130-5 130-5 50-15 85-20 15-35 15-35l-60,5z" fill="#eed1db"/>
 <path d="m87047,286613c162-57 220-105 372-172 153-67 239-124 286-124 48,0-48,57-162,105-115,48-267,105-334,134s-210,124-210,124l48-67z" fill="#ef92ba"/>
 <path d="m87261,286618c-143,67-353,172-201,115 153-57 172-57 239-86s86-76 86-76l-124,48z" fill="#ef92ba"/>
 <path d="m92383 2.868e5c-76 38-115 57-181 95-67 38-320 172-320 172s177-39 272-96 86-48 172-95c86-48 115-86 115-86l-57 10zm-19-162c-80-16-185 42-137 71s41 15 89-4 95-57 95-57l-48-10zm1983-1197c157-38 186 47 219 74l108 89s166 175-15 252c-181 78-280 162-545 259s-367 74-565 180-184 203-446 339-648 337-648 337l156-156s-13-60-54-59c-138 5-59-180-75-179s-157-48-157-48l207-78c26-130 130-155 130-155s165-179 347-257c492-55 1120-545 1339-599zm-1649 978c296-124 267-76 372-153 126-92 575-337 249-168-144 75-222 219-402 274s-251 113-259 118l-107 64 147-134z" fill="#ef92ba" mask="url(#bf)"/>
 <path d="m92750,286284c162-57 220-105 372-172 153-67 238-124 286-124s-48,57-162,105c-115,48-267,105-334,134s-210,124-210,124l48-67z" fill="#5aa99e"/>
 <path d="m93841,285774c-143,67-353,172-200,115s172-57 238-86c67-29 86-76 86-76l-124,48z" fill="#5aa99e"/>
 <path d="m94363,285435c-79,0 66,48 104,95 38,48-52,79-109,98s-133,49-133,87-10,26-10,26 268-63 58,52-121,41-143,66 86,10 134,10-57,85 67,66 130-84 206-103 127-60 160-19c33,42 59-86 17-161s-57-64-80-85l-73-67-64-38-32-28h-102z" fill="url(#s)"/>
 <path d="m93958,286007c-80,5-130,25-195,50s-365,145-300,140 295-120 325-135 130-5 130-5 50-15 85-20 15-35 15-35l-60,5z" fill="#c9caca"/>
 <path d="m92707,286613c162-57 220-105 372-172 153-67 239-124 286-124 48,0-48,57-162,105-115,48-267,105-334,134s-210,124-210,124l48-67z" fill="#5aa99e"/>
 <path d="m92922,286618c-143,67-353,172-201,115 153-57 172-57 239-86s86-76 86-76l-124,48z" fill="#5aa99e"/>
 <path d="m92750,286284c162-57 220-105 372-172 153-67 238-124 286-124s-48,57-162,105c-115,48-267,105-334,134s-210,124-210,124l48-67z" fill="#ef92ba"/>
 <path d="m93841,285774c-143,67-353,172-200,115s172-57 238-86c67-29 86-76 86-76l-124,48z" fill="#ef92ba"/>
 <path d="m94363,285435c-79,0 66,48 104,95 38,48-52,79-109,98s-133,49-133,87-10,26-10,26 268-63 58,52-121,41-143,66 86,10 134,10-57,85 67,66 130-84 206-103 127-60 160-19c33,42 59-86 17-161s-57-64-80-85l-73-67-64-38-32-28h-102z" fill="url(#ai)"/>
 <path d="m93958,286007c-80,5-130,25-195,50s-365,145-300,140 295-120 325-135 130-5 130-5 50-15 85-20 15-35 15-35l-60,5z" fill="#eed1db"/>
 <path d="m92707,286613c162-57 220-105 372-172 153-67 239-124 286-124 48,0-48,57-162,105-115,48-267,105-334,134s-210,124-210,124l48-67z" fill="#ef92ba"/>
 <path d="m92922,286618c-143,67-353,172-201,115 153-57 172-57 239-86s86-76 86-76l-124,48z" fill="#ef92ba"/>
 <path d="m98981 2.868e5c-76 38-115 57-181 95-67 38-320 172-320 172s177-39 272-96 86-48 172-95c86-48 115-86 115-86l-57 10zm-19-162c-80-16-185 42-137 71s41 15 89-4 95-57 95-57l-48-10zm1983-1197c157-38 186 47 219 74l108 89s166 175-15 252c-181 78-280 162-545 259s-367 74-565 180-184 203-446 339-648 337-648 337l156-156s-13-60-54-59c-138 5-59-180-75-179s-157-48-157-48l207-78c26-130 130-155 130-155s165-179 347-257c492-55 1120-545 1339-599zm-1649 978c296-124 267-76 372-153 126-92 575-337 249-168-144 75-222 219-402 274s-251 113-259 118l-107 64 147-134z" fill="#ef92ba" mask="url(#bd)"/>
 <path d="m99348,286284c162-57 220-105 372-172 153-67 238-124 286-124s-48,57-162,105c-115,48-267,105-334,134s-210,124-210,124l48-67z" fill="#5aa99e"/>
 <path d="m100438,285774c-143,67-353,172-200,115s172-57 238-86c67-29 86-76 86-76l-124,48z" fill="#5aa99e"/>
 <path d="m100960,285435c-79,0 66,48 104,95 38,48-52,79-109,98s-133,49-133,87-10,26-10,26 268-63 58,52-121,41-143,66 86,10 134,10-57,85 67,66 130-84 206-103 127-60 160-19c33,42 59-86 17-161s-57-64-80-85l-73-67-64-38-32-28h-102z" fill="url(#r)"/>
 <path d="m100556,286007c-80,5-130,25-195,50s-365,145-300,140 295-120 325-135 130-5 130-5 50-15 85-20 15-35 15-35l-60,5z" fill="#c9caca"/>
 <path d="m99305,286613c162-57 220-105 372-172 153-67 239-124 286-124 48,0-48,57-162,105-115,48-267,105-334,134s-210,124-210,124l48-67z" fill="#5aa99e"/>
 <path d="m99519,286618c-143,67-353,172-201,115 153-57 172-57 239-86s86-76 86-76l-124,48z" fill="#5aa99e"/>
 <path d="m99348,286284c162-57 220-105 372-172 153-67 238-124 286-124s-48,57-162,105c-115,48-267,105-334,134s-210,124-210,124l48-67z" fill="#ef92ba"/>
 <path d="m100438,285774c-143,67-353,172-200,115s172-57 238-86c67-29 86-76 86-76l-124,48z" fill="#ef92ba"/>
 <path d="m100960,285435c-79,0 66,48 104,95 38,48-52,79-109,98s-133,49-133,87-10,26-10,26 268-63 58,52-121,41-143,66 86,10 134,10-57,85 67,66 130-84 206-103 127-60 160-19c33,42 59-86 17-161s-57-64-80-85l-73-67-64-38-32-28h-102z" fill="url(#ah)"/>
 <path d="m100556,286007c-80,5-130,25-195,50s-365,145-300,140 295-120 325-135 130-5 130-5 50-15 85-20 15-35 15-35l-60,5z" fill="#eed1db"/>
 <path d="m99305,286613c162-57 220-105 372-172 153-67 239-124 286-124 48,0-48,57-162,105-115,48-267,105-334,134s-210,124-210,124l48-67z" fill="#ef92ba"/>
 <path d="m99519,286618c-143,67-353,172-201,115 153-57 172-57 239-86s86-76 86-76l-124,48z" fill="#ef92ba"/>
 <path d="m1.0468e5 2.868e5c-76 38-115 57-181 95-67 38-320 172-320 172s177-39 272-96 86-48 172-95c86-48 115-86 115-86l-57 10zm-19-162c-80-16-185 42-137 71s41 15 89-4 95-57 95-57l-48-10zm1983-1197c157-38 186 47 219 74l108 89s166 175-15 252c-181 78-280 162-545 259s-367 74-565 180-184 203-446 339-648 337-648 337l156-156s-13-60-54-59c-138 5-59-180-75-179s-157-48-157-48l207-78c26-130 130-155 130-155s165-179 347-257c492-55 1120-545 1339-599zm-1649 978c296-124 267-76 372-153 126-92 575-337 249-168-144 75-222 219-402 274s-251 113-259 118l-107 64 147-134z" fill="#ef92ba" mask="url(#ba)"/>
 <path d="m105049,286284c162-57 220-105 372-172 153-67 238-124 286-124s-48,57-162,105c-115,48-267,105-334,134s-210,124-210,124l48-67z" fill="#5aa99e"/>
 <path d="m106140,285774c-143,67-353,172-200,115s172-57 238-86c67-29 86-76 86-76l-124,48z" fill="#5aa99e"/>
 <path d="m106662,285435c-79,0 66,48 104,95 38,48-52,79-109,98s-133,49-133,87-10,26-10,26 268-63 58,52-121,41-143,66 86,10 134,10-57,85 67,66 130-84 206-103 127-60 160-19c33,42 59-86 17-161s-57-64-80-85l-73-67-64-38-32-28h-102z" fill="url(#q)"/>
 <path d="m106257,286007c-80,5-130,25-195,50s-365,145-300,140 295-120 325-135 130-5 130-5 50-15 85-20 15-35 15-35l-60,5z" fill="#c9caca"/>
 <path d="m105006,286613c162-57 220-105 372-172 153-67 239-124 286-124 48,0-48,57-162,105-115,48-267,105-334,134s-210,124-210,124l48-67z" fill="#5aa99e"/>
 <path d="m105220,286618c-143,67-353,172-201,115 153-57 172-57 239-86s86-76 86-76l-124,48z" fill="#5aa99e"/>
 <path d="m105049,286284c162-57 220-105 372-172 153-67 238-124 286-124s-48,57-162,105c-115,48-267,105-334,134s-210,124-210,124l48-67z" fill="#ef92ba"/>
 <path d="m106140,285774c-143,67-353,172-200,115s172-57 238-86c67-29 86-76 86-76l-124,48z" fill="#ef92ba"/>
 <path d="m106662,285435c-79,0 66,48 104,95 38,48-52,79-109,98s-133,49-133,87-10,26-10,26 268-63 58,52-121,41-143,66 86,10 134,10-57,85 67,66 130-84 206-103 127-60 160-19c33,42 59-86 17-161s-57-64-80-85l-73-67-64-38-32-28h-102z" fill="url(#af)"/>
 <path d="m106257,286007c-80,5-130,25-195,50s-365,145-300,140 295-120 325-135 130-5 130-5 50-15 85-20 15-35 15-35l-60,5z" fill="#eed1db"/>
 <path d="m105006,286613c162-57 220-105 372-172 153-67 239-124 286-124 48,0-48,57-162,105-115,48-267,105-334,134s-210,124-210,124l48-67z" fill="#ef92ba"/>
 <path d="m105220,286618c-143,67-353,172-201,115 153-57 172-57 239-86s86-76 86-76l-124,48z" fill="#ef92ba"/>
 <path d="m1.1034e5 2.868e5c-76 38-115 57-181 95-67 38-320 172-320 172s177-39 272-96 86-48 172-95c86-48 115-86 115-86l-57 10zm-19-162c-80-16-185 42-137 71s41 15 89-4 95-57 95-57l-48-10zm1983-1197c157-38 186 47 219 74l108 89s166 175-15 252c-181 78-280 162-545 259s-367 74-565 180-184 203-446 339-648 337-648 337l156-156s-13-60-54-59c-138 5-59-180-75-179s-157-48-157-48l207-78c26-130 130-155 130-155s165-179 347-257c492-55 1120-545 1339-599zm-1649 978c296-124 267-76 372-153 126-92 575-337 249-168-144 75-222 219-402 274s-251 113-259 118l-107 64 147-134z" fill="#ef92ba" mask="url(#ay)"/>
 <path d="m110710,286284c162-57 220-105 372-172 153-67 238-124 286-124s-48,57-162,105c-115,48-267,105-334,134s-210,124-210,124l48-67z" fill="#5aa99e"/>
 <path d="m111800,285774c-143,67-353,172-200,115s172-57 238-86c67-29 86-76 86-76l-124,48z" fill="#5aa99e"/>
 <path d="m112322,285435c-79,0 66,48 104,95 38,48-52,79-109,98s-133,49-133,87-10,26-10,26 268-63 58,52-121,41-143,66 86,10 134,10-57,85 67,66 130-84 206-103 127-60 160-19c33,42 59-86 17-161s-57-64-80-85l-73-67-64-38-32-28h-102z" fill="url(#p)"/>
 <path d="m111918,286007c-80,5-130,25-195,50s-365,145-300,140 295-120 325-135 130-5 130-5 50-15 85-20 15-35 15-35l-60,5z" fill="#c9caca"/>
 <path d="m110667,286613c162-57 220-105 372-172 153-67 239-124 286-124 48,0-48,57-162,105-115,48-267,105-334,134s-210,124-210,124l48-67z" fill="#5aa99e"/>
 <path d="m110881,286618c-143,67-353,172-201,115 153-57 172-57 239-86s86-76 86-76l-124,48z" fill="#5aa99e"/>
 <path d="m110710,286284c162-57 220-105 372-172 153-67 238-124 286-124s-48,57-162,105c-115,48-267,105-334,134s-210,124-210,124l48-67z" fill="#ef92ba"/>
 <path d="m111800,285774c-143,67-353,172-200,115s172-57 238-86c67-29 86-76 86-76l-124,48z" fill="#ef92ba"/>
 <path d="m112322,285435c-79,0 66,48 104,95 38,48-52,79-109,98s-133,49-133,87-10,26-10,26 268-63 58,52-121,41-143,66 86,10 134,10-57,85 67,66 130-84 206-103 127-60 160-19c33,42 59-86 17-161s-57-64-80-85l-73-67-64-38-32-28h-102z" fill="url(#ae)"/>
 <path d="m111918,286007c-80,5-130,25-195,50s-365,145-300,140 295-120 325-135 130-5 130-5 50-15 85-20 15-35 15-35l-60,5z" fill="#eed1db"/>
 <path d="m110667,286613c162-57 220-105 372-172 153-67 239-124 286-124 48,0-48,57-162,105-115,48-267,105-334,134s-210,124-210,124l48-67z" fill="#ef92ba"/>
 <path d="m110881,286618c-143,67-353,172-201,115 153-57 172-57 239-86s86-76 86-76l-124,48z" fill="#ef92ba"/>
 <path d="m1.1726e5 2.868e5c-76 38-115 57-181 95-67 38-320 172-320 172s177-39 272-96 86-48 172-95c86-48 115-86 115-86l-57 10zm-19-162c-80-16-185 42-137 71s41 15 89-4 95-57 95-57l-48-10zm1983-1197c157-38 186 47 219 74l108 89s166 175-15 252c-181 78-280 162-545 259s-367 74-565 180-184 203-446 339-648 337-648 337l156-156s-13-60-54-59c-138 5-59-180-75-179s-157-48-157-48l207-78c26-130 130-155 130-155s165-179 347-257c492-55 1120-545 1339-599zm-1649 978c296-124 267-76 372-153 126-92 575-337 249-168-144 75-222 219-402 274s-251 113-259 118l-107 64 147-134z" fill="#ef92ba" mask="url(#aw)"/>
 <path d="m117627,286284c162-57 220-105 372-172 153-67 238-124 286-124s-48,57-162,105c-115,48-267,105-334,134s-210,124-210,124l48-67z" fill="#5aa99e"/>
 <path d="m118717,285774c-143,67-353,172-200,115s172-57 238-86c67-29 86-76 86-76l-124,48z" fill="#5aa99e"/>
 <path d="m119239,285435c-79,0 66,48 104,95 38,48-52,79-109,98s-133,49-133,87-10,26-10,26 268-63 58,52-121,41-143,66 86,10 134,10-57,85 67,66 130-84 206-103 127-60 160-19c33,42 59-86 17-161s-57-64-80-85l-73-67-64-38-32-28h-102z" fill="url(#o)"/>
 <path d="m118835,286007c-80,5-130,25-195,50s-365,145-300,140 295-120 325-135 130-5 130-5 50-15 85-20 15-35 15-35l-60,5z" fill="#c9caca"/>
 <path d="m117584,286613c162-57 220-105 372-172 153-67 239-124 286-124 48,0-48,57-162,105-115,48-267,105-334,134s-210,124-210,124l48-67z" fill="#5aa99e"/>
 <path d="m117798,286618c-143,67-353,172-201,115 153-57 172-57 239-86s86-76 86-76l-124,48z" fill="#5aa99e"/>
 <path d="m117627,286284c162-57 220-105 372-172 153-67 238-124 286-124s-48,57-162,105c-115,48-267,105-334,134s-210,124-210,124l48-67z" fill="#ef92ba"/>
 <path d="m118717,285774c-143,67-353,172-200,115s172-57 238-86c67-29 86-76 86-76l-124,48z" fill="#ef92ba"/>
 <path d="m119239,285435c-79,0 66,48 104,95 38,48-52,79-109,98s-133,49-133,87-10,26-10,26 268-63 58,52-121,41-143,66 86,10 134,10-57,85 67,66 130-84 206-103 127-60 160-19c33,42 59-86 17-161s-57-64-80-85l-73-67-64-38-32-28h-102z" fill="url(#ad)"/>
 <path d="m118835,286007c-80,5-130,25-195,50s-365,145-300,140 295-120 325-135 130-5 130-5 50-15 85-20 15-35 15-35l-60,5z" fill="#eed1db"/>
 <path d="m117584,286613c162-57 220-105 372-172 153-67 239-124 286-124 48,0-48,57-162,105-115,48-267,105-334,134s-210,124-210,124l48-67z" fill="#ef92ba"/>
 <path d="m117798,286618c-143,67-353,172-201,115 153-57 172-57 239-86s86-76 86-76l-124,48z" fill="#ef92ba"/>
 <path d="m1.2296e5 2.868e5c-76 38-115 57-181 95-67 38-320 172-320 172s177-39 272-96 86-48 172-95c86-48 115-86 115-86l-57 10zm-19-162c-80-16-185 42-137 71s41 15 89-4 95-57 95-57l-48-10zm1983-1197c157-38 186 47 219 74l108 89s166 175-15 252c-181 78-280 162-545 259s-367 74-565 180-184 203-446 339-648 337-648 337l156-156s-13-60-54-59c-138 5-59-180-75-179s-157-48-157-48l207-78c26-130 130-155 130-155s165-179 347-257c492-55 1120-545 1339-599zm-1649 978c296-124 267-76 372-153 126-92 575-337 249-168-144 75-222 219-402 274s-251 113-259 118l-107 64 147-134z" fill="#ef92ba" mask="url(#au)"/>
 <path d="m123329,286284c162-57 220-105 372-172 153-67 238-124 286-124s-48,57-162,105c-115,48-267,105-334,134s-210,124-210,124l48-67z" fill="#5aa99e"/>
 <path d="m124419,285774c-143,67-353,172-200,115s172-57 238-86c67-29 86-76 86-76l-124,48z" fill="#5aa99e"/>
 <path d="m124941,285435c-79,0 66,48 104,95 38,48-52,79-109,98s-133,49-133,87-10,26-10,26 268-63 58,52-121,41-143,66 86,10 134,10-57,85 67,66 130-84 206-103 127-60 160-19c33,42 59-86 17-161s-57-64-80-85l-73-67-64-38-32-28h-102z" fill="url(#n)"/>
 <path d="m124536,286007c-80,5-130,25-195,50s-365,145-300,140 295-120 325-135 130-5 130-5 50-15 85-20 15-35 15-35l-60,5z" fill="#c9caca"/>
 <path d="m123285,286613c162-57 220-105 372-172 153-67 239-124 286-124 48,0-48,57-162,105-115,48-267,105-334,134s-210,124-210,124l48-67z" fill="#5aa99e"/>
 <path d="m123500,286618c-143,67-353,172-201,115 153-57 172-57 239-86s86-76 86-76l-124,48z" fill="#5aa99e"/>
 <path d="m123329,286284c162-57 220-105 372-172 153-67 238-124 286-124s-48,57-162,105c-115,48-267,105-334,134s-210,124-210,124l48-67z" fill="#ef92ba"/>
 <path d="m124419,285774c-143,67-353,172-200,115s172-57 238-86c67-29 86-76 86-76l-124,48z" fill="#ef92ba"/>
 <path d="m124941,285435c-79,0 66,48 104,95 38,48-52,79-109,98s-133,49-133,87-10,26-10,26 268-63 58,52-121,41-143,66 86,10 134,10-57,85 67,66 130-84 206-103 127-60 160-19c33,42 59-86 17-161s-57-64-80-85l-73-67-64-38-32-28h-102z" fill="url(#ac)"/>
 <path d="m124536,286007c-80,5-130,25-195,50s-365,145-300,140 295-120 325-135 130-5 130-5 50-15 85-20 15-35 15-35l-60,5z" fill="#eed1db"/>
 <path d="m123285,286613c162-57 220-105 372-172 153-67 239-124 286-124 48,0-48,57-162,105-115,48-267,105-334,134s-210,124-210,124l48-67z" fill="#ef92ba"/>
 <path d="m123500,286618c-143,67-353,172-201,115 153-57 172-57 239-86s86-76 86-76l-124,48z" fill="#ef92ba"/>
 <path d="m1.2862e5 2.868e5c-76 38-115 57-181 95-67 38-320 172-320 172s177-39 272-96 86-48 172-95c86-48 115-86 115-86l-57 10zm-19-162c-80-16-185 42-137 71s41 15 89-4 95-57 95-57l-48-10zm1983-1197c157-38 186 47 219 74l108 89s166 175-15 252c-181 78-280 162-545 259s-367 74-565 180-184 203-446 339-648 337-648 337l156-156s-13-60-54-59c-138 5-59-180-75-179s-157-48-157-48l207-78c26-130 130-155 130-155s165-179 347-257c492-55 1120-545 1339-599zm-1649 978c296-124 267-76 372-153 126-92 575-337 249-168-144 75-222 219-402 274s-251 113-259 118l-107 64 147-134z" fill="#ef92ba" mask="url(#as)"/>
 <path d="m128989,286284c162-57 220-105 372-172 153-67 238-124 286-124s-48,57-162,105c-115,48-267,105-334,134s-210,124-210,124l48-67z" fill="#5aa99e"/>
 <path d="m130079,285774c-143,67-353,172-200,115s172-57 238-86c67-29 86-76 86-76l-124,48z" fill="#5aa99e"/>
 <path d="m130601,285435c-79,0 66,48 104,95 38,48-52,79-109,98s-133,49-133,87-10,26-10,26 268-63 58,52-121,41-143,66 86,10 134,10-57,85 67,66 130-84 206-103 127-60 160-19c33,42 59-86 17-161s-57-64-80-85l-73-67-64-38-32-28h-102z" fill="url(#m)"/>
 <path d="m130197,286007c-80,5-130,25-195,50s-365,145-300,140 295-120 325-135 130-5 130-5 50-15 85-20 15-35 15-35l-60,5z" fill="#c9caca"/>
 <path d="m128946,286613c162-57 220-105 372-172 153-67 239-124 286-124 48,0-48,57-162,105-115,48-267,105-334,134s-210,124-210,124l48-67z" fill="#5aa99e"/>
 <path d="m129160,286618c-143,67-353,172-201,115 153-57 172-57 239-86s86-76 86-76l-124,48z" fill="#5aa99e"/>
 <path d="m128989,286284c162-57 220-105 372-172 153-67 238-124 286-124s-48,57-162,105c-115,48-267,105-334,134s-210,124-210,124l48-67z" fill="#ef92ba"/>
 <path d="m130079,285774c-143,67-353,172-200,115s172-57 238-86c67-29 86-76 86-76l-124,48z" fill="#ef92ba"/>
 <path d="m130601,285435c-79,0 66,48 104,95 38,48-52,79-109,98s-133,49-133,87-10,26-10,26 268-63 58,52-121,41-143,66 86,10 134,10-57,85 67,66 130-84 206-103 127-60 160-19c33,42 59-86 17-161s-57-64-80-85l-73-67-64-38-32-28h-102z" fill="url(#ab)"/>
 <path d="m130197,286007c-80,5-130,25-195,50s-365,145-300,140 295-120 325-135 130-5 130-5 50-15 85-20 15-35 15-35l-60,5z" fill="#eed1db"/>
 <path d="m128946,286613c162-57 220-105 372-172 153-67 239-124 286-124 48,0-48,57-162,105-115,48-267,105-334,134s-210,124-210,124l48-67z" fill="#ef92ba"/>
 <path d="m129160,286618c-143,67-353,172-201,115 153-57 172-57 239-86s86-76 86-76l-124,48z" fill="#ef92ba"/>
</svg>
